<?xml version="1.0" encoding="UTF-8" standalone="no"?>
<!DOCTYPE svg PUBLIC "-//W3C//DTD SVG 1.1//EN" "http://www.w3.org/Graphics/SVG/1.1/DTD/svg11.dtd">
<svg width="100%" height="100%" viewBox="0 0 2254 920" version="1.1" xmlns="http://www.w3.org/2000/svg" xmlns:xlink="http://www.w3.org/1999/xlink" xml:space="preserve" xmlns:serif="http://www.serif.com/" style="fill-rule:evenodd;clip-rule:evenodd;stroke-linejoin:round;stroke-miterlimit:2;">
    <g transform="matrix(2.07991,0,0,2.07991,-1374.19,-1732.96)">
        <g transform="matrix(400,0,0,400,939.511,1119.79)">
            <path d="M0.357,-0.248C0.357,-0.208 0.352,-0.172 0.342,-0.14C0.332,-0.108 0.317,-0.082 0.298,-0.06C0.279,-0.038 0.256,-0.021 0.228,-0.01C0.2,0.002 0.167,0.008 0.131,0.008C0.099,0.008 0.065,0.003 0.03,-0.006C0.031,-0.016 0.032,-0.025 0.033,-0.035C0.034,-0.044 0.035,-0.054 0.036,-0.063C0.036,-0.069 0.038,-0.073 0.042,-0.077C0.045,-0.08 0.05,-0.082 0.058,-0.082C0.064,-0.082 0.072,-0.081 0.082,-0.078C0.092,-0.075 0.105,-0.073 0.122,-0.073C0.143,-0.073 0.163,-0.076 0.18,-0.083C0.197,-0.09 0.212,-0.1 0.224,-0.114C0.236,-0.128 0.245,-0.146 0.251,-0.168C0.257,-0.19 0.26,-0.216 0.26,-0.246L0.26,-0.717L0.357,-0.717L0.357,-0.248Z" style="fill:rgb(251,251,251);fill-rule:nonzero;"/>
        </g>
        <g transform="matrix(400,0,0,400,1117.11,1119.79)">
            <path d="M0.278,-0.515C0.315,-0.515 0.348,-0.508 0.378,-0.496C0.408,-0.484 0.433,-0.466 0.454,-0.444C0.475,-0.421 0.491,-0.393 0.502,-0.361C0.513,-0.329 0.519,-0.293 0.519,-0.254C0.519,-0.214 0.513,-0.178 0.502,-0.146C0.491,-0.114 0.475,-0.086 0.454,-0.064C0.433,-0.041 0.408,-0.023 0.378,-0.011C0.348,0.001 0.315,0.007 0.278,0.007C0.241,0.007 0.208,0.001 0.178,-0.011C0.148,-0.023 0.123,-0.041 0.102,-0.064C0.081,-0.086 0.064,-0.114 0.053,-0.146C0.042,-0.178 0.036,-0.214 0.036,-0.254C0.036,-0.293 0.042,-0.329 0.053,-0.361C0.064,-0.393 0.081,-0.421 0.102,-0.444C0.123,-0.466 0.148,-0.484 0.178,-0.496C0.208,-0.508 0.241,-0.515 0.278,-0.515ZM0.278,-0.063C0.328,-0.063 0.365,-0.079 0.39,-0.113C0.415,-0.146 0.427,-0.193 0.427,-0.253C0.427,-0.313 0.415,-0.36 0.39,-0.394C0.365,-0.428 0.328,-0.444 0.278,-0.445C0.253,-0.444 0.231,-0.44 0.212,-0.432C0.193,-0.423 0.178,-0.41 0.165,-0.394C0.153,-0.378 0.143,-0.358 0.137,-0.334C0.131,-0.31 0.128,-0.283 0.128,-0.253C0.128,-0.223 0.131,-0.196 0.137,-0.173C0.143,-0.149 0.153,-0.129 0.165,-0.113C0.178,-0.097 0.193,-0.084 0.212,-0.076C0.231,-0.067 0.253,-0.063 0.278,-0.063Z" style="fill:rgb(251,251,251);fill-rule:nonzero;"/>
        </g>
        <g transform="matrix(400,0,0,400,1316.31,1119.79)">
            <path d="M0.004,-0.717L0.082,-0.717C0.09,-0.717 0.097,-0.714 0.103,-0.71C0.108,-0.706 0.112,-0.7 0.115,-0.694L0.317,-0.188C0.322,-0.177 0.326,-0.164 0.33,-0.151C0.334,-0.138 0.337,-0.124 0.341,-0.11C0.344,-0.124 0.347,-0.138 0.351,-0.151C0.354,-0.164 0.358,-0.177 0.363,-0.188L0.565,-0.694C0.567,-0.699 0.571,-0.704 0.577,-0.709C0.582,-0.714 0.589,-0.717 0.598,-0.717L0.676,-0.717L0.384,0L0.296,0L0.004,-0.717Z" style="fill:rgb(251,251,251);fill-rule:nonzero;"/>
        </g>
        <g transform="matrix(400,0,0,400,1565.11,1119.79)">
            <path d="M0.445,0L0.406,0C0.397,0 0.39,-0.001 0.385,-0.004C0.379,-0.007 0.376,-0.012 0.374,-0.021L0.364,-0.068C0.351,-0.056 0.338,-0.045 0.325,-0.036C0.312,-0.026 0.299,-0.018 0.285,-0.012C0.271,-0.005 0.256,0 0.24,0.003C0.224,0.006 0.207,0.008 0.188,0.008C0.168,0.008 0.149,0.005 0.132,0C0.115,-0.006 0.1,-0.014 0.088,-0.025C0.075,-0.036 0.065,-0.05 0.057,-0.067C0.05,-0.084 0.046,-0.103 0.046,-0.127C0.046,-0.147 0.051,-0.166 0.063,-0.184C0.074,-0.203 0.091,-0.219 0.116,-0.234C0.14,-0.248 0.172,-0.26 0.212,-0.269C0.252,-0.278 0.3,-0.283 0.358,-0.285L0.358,-0.324C0.358,-0.363 0.349,-0.393 0.332,-0.413C0.315,-0.433 0.291,-0.444 0.258,-0.444C0.236,-0.444 0.218,-0.441 0.203,-0.435C0.188,-0.43 0.175,-0.424 0.164,-0.417C0.153,-0.41 0.144,-0.404 0.136,-0.398C0.128,-0.393 0.121,-0.39 0.113,-0.39C0.107,-0.39 0.102,-0.392 0.097,-0.395C0.093,-0.398 0.089,-0.402 0.087,-0.407L0.071,-0.435C0.098,-0.462 0.129,-0.482 0.161,-0.496C0.193,-0.509 0.229,-0.516 0.269,-0.516C0.297,-0.516 0.322,-0.511 0.344,-0.502C0.366,-0.492 0.385,-0.479 0.4,-0.463C0.415,-0.446 0.426,-0.426 0.434,-0.402C0.441,-0.378 0.445,-0.352 0.445,-0.324L0.445,0ZM0.214,-0.055C0.23,-0.055 0.244,-0.056 0.257,-0.059C0.27,-0.062 0.282,-0.067 0.294,-0.073C0.305,-0.079 0.316,-0.086 0.327,-0.094C0.337,-0.102 0.347,-0.112 0.358,-0.123L0.358,-0.228C0.317,-0.227 0.282,-0.223 0.253,-0.218C0.224,-0.213 0.201,-0.206 0.183,-0.198C0.165,-0.19 0.152,-0.18 0.144,-0.169C0.136,-0.157 0.132,-0.145 0.132,-0.131C0.132,-0.117 0.134,-0.106 0.138,-0.096C0.142,-0.086 0.148,-0.078 0.156,-0.072C0.163,-0.066 0.171,-0.062 0.182,-0.059C0.192,-0.056 0.202,-0.055 0.214,-0.055Z" style="fill:rgb(251,251,251);fill-rule:nonzero;"/>
        </g>
    </g>
    <g transform="matrix(4.83198,0,0,4.83198,-3153.57,-6263.7)">
        <g transform="matrix(50,0,0,50,777.237,1476.33)">
            <path d="M0.409,-0.034C0.433,-0.034 0.456,-0.035 0.476,-0.037C0.496,-0.04 0.514,-0.044 0.531,-0.049C0.548,-0.054 0.565,-0.06 0.58,-0.067C0.596,-0.074 0.611,-0.082 0.627,-0.091L0.627,-0.282L0.491,-0.282C0.487,-0.282 0.484,-0.283 0.482,-0.285C0.479,-0.287 0.478,-0.29 0.478,-0.293L0.478,-0.321L0.674,-0.321L0.674,-0.07C0.656,-0.057 0.638,-0.046 0.619,-0.037C0.6,-0.027 0.579,-0.019 0.558,-0.012C0.536,-0.006 0.513,-0.001 0.488,0.003C0.462,0.006 0.435,0.008 0.406,0.008C0.355,0.008 0.308,-0.001 0.266,-0.018C0.224,-0.035 0.187,-0.059 0.157,-0.091C0.127,-0.122 0.104,-0.16 0.087,-0.205C0.07,-0.25 0.062,-0.299 0.062,-0.354C0.062,-0.409 0.07,-0.458 0.087,-0.503C0.104,-0.547 0.127,-0.585 0.158,-0.617C0.189,-0.648 0.226,-0.673 0.27,-0.69C0.314,-0.707 0.363,-0.716 0.417,-0.716C0.444,-0.716 0.469,-0.714 0.492,-0.71C0.515,-0.706 0.536,-0.701 0.556,-0.694C0.575,-0.687 0.594,-0.678 0.611,-0.667C0.628,-0.657 0.644,-0.645 0.66,-0.631L0.646,-0.609C0.643,-0.604 0.639,-0.602 0.634,-0.602C0.631,-0.602 0.628,-0.602 0.625,-0.604C0.62,-0.606 0.613,-0.61 0.603,-0.618C0.594,-0.625 0.581,-0.632 0.565,-0.641C0.549,-0.649 0.528,-0.656 0.504,-0.662C0.48,-0.668 0.45,-0.672 0.416,-0.672C0.37,-0.672 0.328,-0.664 0.291,-0.65C0.254,-0.635 0.222,-0.614 0.196,-0.587C0.17,-0.559 0.15,-0.526 0.136,-0.487C0.122,-0.447 0.115,-0.403 0.115,-0.354C0.115,-0.304 0.122,-0.259 0.136,-0.22C0.15,-0.18 0.17,-0.146 0.196,-0.119C0.222,-0.091 0.253,-0.07 0.289,-0.056C0.325,-0.041 0.365,-0.034 0.409,-0.034Z" style="fill:rgb(251,251,251);fill-rule:nonzero;"/>
        </g>
        <g transform="matrix(50,0,0,50,814.662,1476.33)">
            <path d="M0.081,0L0.081,-0.498L0.106,-0.498C0.112,-0.498 0.116,-0.496 0.118,-0.494C0.121,-0.492 0.122,-0.488 0.123,-0.482L0.127,-0.377C0.142,-0.417 0.164,-0.449 0.191,-0.472C0.217,-0.495 0.25,-0.506 0.289,-0.506C0.304,-0.506 0.318,-0.504 0.331,-0.501C0.343,-0.498 0.355,-0.494 0.367,-0.488L0.36,-0.455C0.359,-0.449 0.356,-0.447 0.35,-0.447C0.348,-0.447 0.345,-0.447 0.342,-0.449C0.338,-0.45 0.333,-0.451 0.328,-0.453C0.322,-0.455 0.316,-0.456 0.308,-0.458C0.3,-0.459 0.29,-0.46 0.28,-0.46C0.242,-0.46 0.211,-0.448 0.187,-0.425C0.163,-0.401 0.143,-0.368 0.129,-0.324L0.129,0L0.081,0Z" style="fill:rgb(251,251,251);fill-rule:nonzero;"/>
        </g>
        <g transform="matrix(50,0,0,50,833.262,1476.33)">
            <path d="M0.399,0C0.389,0 0.382,-0.005 0.38,-0.014L0.373,-0.078C0.359,-0.064 0.346,-0.052 0.332,-0.042C0.319,-0.031 0.305,-0.022 0.29,-0.015C0.275,-0.007 0.26,-0.002 0.243,0.002C0.226,0.006 0.207,0.008 0.187,0.008C0.169,0.008 0.153,0.006 0.137,0.001C0.121,-0.005 0.107,-0.012 0.095,-0.023C0.082,-0.033 0.072,-0.046 0.065,-0.062C0.057,-0.078 0.054,-0.098 0.054,-0.121C0.054,-0.141 0.059,-0.161 0.072,-0.179C0.084,-0.197 0.102,-0.213 0.128,-0.226C0.153,-0.239 0.186,-0.25 0.226,-0.258C0.266,-0.266 0.315,-0.271 0.371,-0.272L0.371,-0.324C0.371,-0.37 0.361,-0.405 0.341,-0.43C0.321,-0.455 0.292,-0.468 0.253,-0.468C0.229,-0.468 0.209,-0.464 0.192,-0.458C0.175,-0.451 0.161,-0.444 0.149,-0.436C0.137,-0.428 0.128,-0.42 0.121,-0.414C0.113,-0.407 0.107,-0.404 0.102,-0.404C0.095,-0.404 0.09,-0.407 0.087,-0.413L0.079,-0.427C0.105,-0.453 0.132,-0.473 0.161,-0.486C0.189,-0.499 0.222,-0.506 0.258,-0.506C0.285,-0.506 0.308,-0.502 0.328,-0.493C0.348,-0.485 0.365,-0.473 0.378,-0.457C0.391,-0.441 0.401,-0.422 0.408,-0.399C0.414,-0.377 0.418,-0.352 0.418,-0.324L0.418,0L0.399,0ZM0.199,-0.027C0.218,-0.027 0.236,-0.029 0.252,-0.033C0.268,-0.037 0.283,-0.043 0.297,-0.05C0.311,-0.058 0.324,-0.067 0.336,-0.077C0.347,-0.087 0.359,-0.098 0.371,-0.111L0.371,-0.24C0.324,-0.239 0.283,-0.235 0.249,-0.229C0.215,-0.223 0.186,-0.216 0.164,-0.206C0.142,-0.196 0.126,-0.184 0.115,-0.17C0.105,-0.156 0.099,-0.14 0.1,-0.123C0.099,-0.106 0.102,-0.091 0.108,-0.079C0.113,-0.067 0.121,-0.057 0.13,-0.049C0.139,-0.041 0.149,-0.036 0.161,-0.032C0.173,-0.028 0.186,-0.027 0.199,-0.027Z" style="fill:rgb(251,251,251);fill-rule:nonzero;"/>
        </g>
        <g transform="matrix(50,0,0,50,857.587,1476.33)">
            <path d="M0.081,0.176L0.081,-0.498L0.107,-0.498C0.111,-0.498 0.115,-0.497 0.118,-0.495C0.12,-0.493 0.122,-0.49 0.122,-0.485L0.127,-0.408C0.149,-0.438 0.174,-0.462 0.204,-0.48C0.233,-0.497 0.266,-0.506 0.303,-0.506C0.364,-0.506 0.412,-0.485 0.446,-0.443C0.48,-0.4 0.497,-0.337 0.497,-0.252C0.497,-0.216 0.492,-0.182 0.483,-0.15C0.473,-0.119 0.459,-0.091 0.441,-0.068C0.423,-0.045 0.4,-0.027 0.373,-0.014C0.346,0 0.316,0.007 0.281,0.007C0.247,0.007 0.217,0 0.193,-0.012C0.168,-0.024 0.147,-0.043 0.129,-0.067L0.129,0.176L0.081,0.176ZM0.29,-0.468C0.257,-0.468 0.227,-0.459 0.2,-0.442C0.173,-0.425 0.149,-0.401 0.129,-0.37L0.129,-0.109C0.148,-0.08 0.169,-0.06 0.192,-0.049C0.215,-0.037 0.241,-0.031 0.271,-0.031C0.3,-0.031 0.326,-0.036 0.348,-0.047C0.37,-0.058 0.388,-0.073 0.403,-0.092C0.418,-0.112 0.429,-0.135 0.437,-0.162C0.444,-0.189 0.448,-0.219 0.448,-0.252C0.448,-0.326 0.434,-0.38 0.407,-0.415C0.38,-0.45 0.341,-0.468 0.29,-0.468Z" style="fill:rgb(251,251,251);fill-rule:nonzero;"/>
        </g>
        <g transform="matrix(50,0,0,50,884.337,1476.33)">
            <path d="M0.081,0L0.081,-0.728L0.129,-0.728L0.129,-0.413C0.152,-0.441 0.178,-0.463 0.207,-0.48C0.237,-0.497 0.27,-0.506 0.307,-0.506C0.334,-0.506 0.358,-0.501 0.379,-0.493C0.4,-0.484 0.417,-0.471 0.431,-0.455C0.444,-0.439 0.455,-0.419 0.462,-0.396C0.468,-0.373 0.472,-0.347 0.472,-0.318L0.472,0L0.425,0L0.425,-0.318C0.424,-0.365 0.414,-0.401 0.393,-0.428C0.371,-0.454 0.338,-0.468 0.295,-0.468C0.262,-0.468 0.232,-0.459 0.204,-0.442C0.175,-0.425 0.151,-0.402 0.129,-0.373L0.129,0L0.081,0Z" style="fill:rgb(251,251,251);fill-rule:nonzero;"/>
        </g>
        <g transform="matrix(50,0,0,50,911.387,1476.33)">
            <path d="M0.143,-0.498L0.143,0L0.095,0L0.095,-0.498L0.143,-0.498ZM0.164,-0.669C0.164,-0.663 0.162,-0.657 0.16,-0.652C0.157,-0.647 0.154,-0.643 0.15,-0.639C0.146,-0.635 0.141,-0.631 0.136,-0.629C0.131,-0.627 0.125,-0.626 0.119,-0.626C0.113,-0.626 0.107,-0.627 0.102,-0.629C0.097,-0.631 0.092,-0.635 0.088,-0.639C0.084,-0.643 0.081,-0.647 0.079,-0.652C0.076,-0.657 0.075,-0.663 0.075,-0.669C0.075,-0.675 0.076,-0.681 0.079,-0.686C0.081,-0.692 0.084,-0.697 0.088,-0.701C0.092,-0.705 0.097,-0.708 0.102,-0.71C0.107,-0.712 0.113,-0.714 0.119,-0.714C0.125,-0.714 0.131,-0.712 0.136,-0.71C0.141,-0.708 0.146,-0.705 0.15,-0.701C0.154,-0.697 0.157,-0.692 0.16,-0.686C0.162,-0.681 0.164,-0.675 0.164,-0.669Z" style="fill:rgb(251,251,251);fill-rule:nonzero;"/>
        </g>
        <g transform="matrix(50,0,0,50,923.262,1476.33)">
            <path d="M0.409,-0.431C0.407,-0.429 0.405,-0.428 0.404,-0.427C0.402,-0.426 0.4,-0.425 0.398,-0.425C0.394,-0.425 0.39,-0.427 0.384,-0.432C0.378,-0.436 0.37,-0.441 0.361,-0.447C0.351,-0.452 0.339,-0.457 0.324,-0.461C0.31,-0.466 0.292,-0.468 0.272,-0.468C0.243,-0.468 0.217,-0.463 0.195,-0.453C0.173,-0.443 0.154,-0.428 0.139,-0.409C0.124,-0.39 0.113,-0.367 0.105,-0.34C0.096,-0.313 0.092,-0.283 0.093,-0.249C0.092,-0.214 0.097,-0.183 0.105,-0.156C0.113,-0.129 0.125,-0.106 0.14,-0.088C0.155,-0.069 0.173,-0.055 0.194,-0.046C0.215,-0.036 0.239,-0.031 0.265,-0.031C0.289,-0.031 0.309,-0.034 0.325,-0.04C0.341,-0.045 0.355,-0.051 0.365,-0.058C0.376,-0.065 0.384,-0.071 0.39,-0.077C0.396,-0.082 0.401,-0.085 0.405,-0.085C0.409,-0.085 0.413,-0.083 0.415,-0.08L0.428,-0.064C0.42,-0.054 0.411,-0.045 0.399,-0.036C0.387,-0.027 0.374,-0.02 0.36,-0.014C0.345,-0.007 0.329,-0.002 0.312,0.001C0.295,0.005 0.277,0.007 0.258,0.007C0.226,0.007 0.197,0.001 0.171,-0.011C0.145,-0.022 0.123,-0.039 0.104,-0.061C0.085,-0.083 0.07,-0.109 0.06,-0.141C0.049,-0.173 0.044,-0.209 0.044,-0.249C0.044,-0.287 0.049,-0.322 0.059,-0.353C0.069,-0.384 0.084,-0.411 0.103,-0.434C0.122,-0.457 0.145,-0.474 0.173,-0.487C0.201,-0.499 0.233,-0.506 0.269,-0.506C0.301,-0.506 0.33,-0.5 0.355,-0.49C0.38,-0.48 0.402,-0.466 0.421,-0.448L0.409,-0.431Z" style="fill:rgb(251,251,251);fill-rule:nonzero;"/>
        </g>
    </g>
    <g transform="matrix(4.83198,0,0,4.83198,-4867.02,-7114.75)">
        <g transform="matrix(50,0,0,50,1327.81,1653.44)">
            <path d="M0.701,-0.354C0.701,-0.299 0.692,-0.25 0.676,-0.207C0.66,-0.163 0.637,-0.126 0.607,-0.095C0.577,-0.064 0.542,-0.041 0.501,-0.025C0.459,-0.008 0.413,0 0.363,0L0.105,0L0.105,-0.708L0.363,-0.708C0.413,-0.708 0.459,-0.699 0.501,-0.683C0.542,-0.667 0.577,-0.643 0.607,-0.613C0.637,-0.582 0.66,-0.545 0.676,-0.501C0.692,-0.457 0.701,-0.408 0.701,-0.354ZM0.648,-0.354C0.648,-0.403 0.641,-0.447 0.627,-0.486C0.613,-0.525 0.594,-0.557 0.569,-0.584C0.544,-0.611 0.515,-0.631 0.48,-0.645C0.444,-0.659 0.406,-0.666 0.363,-0.666L0.157,-0.666L0.157,-0.042L0.363,-0.042C0.406,-0.042 0.444,-0.049 0.48,-0.063C0.515,-0.077 0.544,-0.097 0.569,-0.124C0.594,-0.15 0.613,-0.183 0.627,-0.222C0.641,-0.26 0.648,-0.304 0.648,-0.354Z" style="fill:rgb(251,251,251);fill-rule:nonzero;"/>
        </g>
        <g transform="matrix(50,0,0,50,1365.81,1653.44)">
            <path d="M0.269,-0.506C0.297,-0.506 0.322,-0.501 0.346,-0.491C0.37,-0.481 0.391,-0.467 0.408,-0.449C0.426,-0.43 0.439,-0.407 0.449,-0.381C0.459,-0.354 0.464,-0.323 0.464,-0.288C0.464,-0.28 0.463,-0.275 0.461,-0.273C0.459,-0.27 0.455,-0.269 0.451,-0.269L0.091,-0.269L0.091,-0.259C0.091,-0.222 0.095,-0.189 0.104,-0.161C0.113,-0.132 0.125,-0.108 0.141,-0.089C0.157,-0.07 0.176,-0.056 0.199,-0.046C0.222,-0.036 0.247,-0.032 0.275,-0.032C0.3,-0.032 0.322,-0.034 0.34,-0.04C0.358,-0.045 0.374,-0.051 0.386,-0.058C0.399,-0.065 0.409,-0.071 0.416,-0.077C0.423,-0.082 0.429,-0.085 0.432,-0.085C0.436,-0.085 0.44,-0.083 0.442,-0.08L0.455,-0.064C0.447,-0.054 0.436,-0.045 0.423,-0.036C0.41,-0.027 0.395,-0.02 0.379,-0.014C0.363,-0.008 0.346,-0.003 0.327,0.001C0.309,0.005 0.29,0.007 0.272,0.007C0.238,0.007 0.206,0.001 0.179,-0.011C0.151,-0.023 0.127,-0.04 0.107,-0.063C0.087,-0.086 0.071,-0.113 0.06,-0.146C0.049,-0.179 0.044,-0.217 0.044,-0.259C0.044,-0.295 0.049,-0.328 0.059,-0.358C0.069,-0.388 0.084,-0.414 0.103,-0.436C0.122,-0.458 0.146,-0.475 0.174,-0.487C0.202,-0.499 0.233,-0.506 0.269,-0.506ZM0.269,-0.47C0.243,-0.47 0.22,-0.466 0.2,-0.458C0.18,-0.45 0.162,-0.439 0.147,-0.424C0.132,-0.409 0.12,-0.391 0.111,-0.37C0.102,-0.349 0.096,-0.325 0.093,-0.299L0.421,-0.299C0.421,-0.326 0.417,-0.35 0.41,-0.371C0.403,-0.392 0.392,-0.41 0.379,-0.425C0.366,-0.439 0.35,-0.45 0.331,-0.458C0.312,-0.466 0.292,-0.47 0.269,-0.47Z" style="fill:rgb(251,251,251);fill-rule:nonzero;"/>
        </g>
        <g transform="matrix(50,0,0,50,1391.36,1653.44)">
            <path d="M0.355,-0.436C0.353,-0.431 0.349,-0.429 0.344,-0.429C0.34,-0.429 0.336,-0.431 0.33,-0.435C0.324,-0.439 0.316,-0.444 0.307,-0.449C0.297,-0.454 0.286,-0.459 0.272,-0.463C0.258,-0.467 0.241,-0.47 0.221,-0.47C0.203,-0.47 0.187,-0.467 0.172,-0.462C0.157,-0.457 0.144,-0.45 0.134,-0.441C0.123,-0.432 0.115,-0.422 0.109,-0.411C0.103,-0.399 0.1,-0.387 0.101,-0.375C0.1,-0.359 0.105,-0.346 0.113,-0.336C0.121,-0.325 0.131,-0.316 0.144,-0.309C0.157,-0.302 0.172,-0.295 0.188,-0.29C0.205,-0.285 0.222,-0.279 0.239,-0.274C0.256,-0.269 0.273,-0.263 0.29,-0.256C0.306,-0.25 0.321,-0.242 0.334,-0.232C0.347,-0.222 0.358,-0.211 0.366,-0.197C0.374,-0.183 0.378,-0.166 0.378,-0.146C0.378,-0.124 0.374,-0.104 0.366,-0.085C0.358,-0.066 0.347,-0.05 0.332,-0.037C0.317,-0.023 0.299,-0.012 0.277,-0.004C0.255,0.004 0.231,0.008 0.203,0.008C0.168,0.008 0.138,0.002 0.113,-0.009C0.087,-0.02 0.065,-0.035 0.045,-0.053L0.056,-0.07C0.058,-0.072 0.059,-0.074 0.062,-0.076C0.064,-0.077 0.066,-0.078 0.07,-0.078C0.074,-0.078 0.08,-0.075 0.086,-0.07C0.092,-0.064 0.101,-0.058 0.111,-0.052C0.121,-0.046 0.134,-0.04 0.149,-0.035C0.164,-0.03 0.183,-0.027 0.205,-0.027C0.226,-0.027 0.245,-0.03 0.261,-0.036C0.277,-0.042 0.29,-0.049 0.301,-0.06C0.311,-0.069 0.319,-0.081 0.325,-0.095C0.33,-0.108 0.333,-0.123 0.333,-0.138C0.333,-0.154 0.329,-0.168 0.321,-0.179C0.313,-0.19 0.303,-0.199 0.29,-0.207C0.277,-0.215 0.262,-0.221 0.245,-0.227C0.229,-0.232 0.212,-0.237 0.194,-0.243C0.177,-0.248 0.16,-0.254 0.143,-0.26C0.127,-0.266 0.112,-0.274 0.099,-0.284C0.086,-0.294 0.076,-0.305 0.068,-0.319C0.059,-0.333 0.056,-0.35 0.056,-0.371C0.056,-0.389 0.059,-0.406 0.067,-0.422C0.075,-0.438 0.086,-0.453 0.1,-0.465C0.114,-0.477 0.131,-0.487 0.152,-0.495C0.172,-0.502 0.195,-0.506 0.22,-0.506C0.25,-0.506 0.277,-0.501 0.301,-0.493C0.324,-0.484 0.346,-0.471 0.366,-0.453L0.355,-0.436Z" style="fill:rgb(251,251,251);fill-rule:nonzero;"/>
        </g>
        <g transform="matrix(50,0,0,50,1412.86,1653.44)">
            <path d="M0.143,-0.498L0.143,0L0.095,0L0.095,-0.498L0.143,-0.498ZM0.164,-0.669C0.164,-0.663 0.162,-0.657 0.16,-0.652C0.157,-0.647 0.154,-0.643 0.15,-0.639C0.146,-0.635 0.141,-0.631 0.136,-0.629C0.131,-0.627 0.125,-0.626 0.119,-0.626C0.113,-0.626 0.107,-0.627 0.102,-0.629C0.097,-0.631 0.092,-0.635 0.088,-0.639C0.084,-0.643 0.081,-0.647 0.079,-0.652C0.076,-0.657 0.075,-0.663 0.075,-0.669C0.075,-0.675 0.076,-0.681 0.079,-0.686C0.081,-0.692 0.084,-0.697 0.088,-0.701C0.092,-0.705 0.097,-0.708 0.102,-0.71C0.107,-0.712 0.113,-0.714 0.119,-0.714C0.125,-0.714 0.131,-0.712 0.136,-0.71C0.141,-0.708 0.146,-0.705 0.15,-0.701C0.154,-0.697 0.157,-0.692 0.16,-0.686C0.162,-0.681 0.164,-0.675 0.164,-0.669Z" style="fill:rgb(251,251,251);fill-rule:nonzero;"/>
        </g>
        <g transform="matrix(50,0,0,50,1424.74,1653.44)">
            <path d="M0.245,-0.506C0.267,-0.506 0.287,-0.503 0.305,-0.498C0.324,-0.493 0.34,-0.485 0.355,-0.476L0.483,-0.476L0.483,-0.459C0.483,-0.451 0.478,-0.446 0.469,-0.446L0.393,-0.44C0.402,-0.427 0.41,-0.413 0.415,-0.397C0.42,-0.381 0.422,-0.365 0.422,-0.347C0.422,-0.323 0.418,-0.301 0.409,-0.281C0.4,-0.262 0.388,-0.245 0.373,-0.231C0.357,-0.217 0.339,-0.207 0.317,-0.199C0.295,-0.191 0.271,-0.188 0.245,-0.188C0.216,-0.188 0.19,-0.192 0.167,-0.201C0.153,-0.193 0.142,-0.183 0.134,-0.172C0.126,-0.161 0.122,-0.15 0.122,-0.14C0.122,-0.126 0.127,-0.115 0.137,-0.107C0.147,-0.099 0.16,-0.094 0.177,-0.09C0.193,-0.087 0.212,-0.085 0.233,-0.084C0.254,-0.083 0.276,-0.081 0.298,-0.08C0.32,-0.079 0.341,-0.077 0.362,-0.074C0.383,-0.071 0.402,-0.066 0.419,-0.058C0.435,-0.051 0.448,-0.04 0.459,-0.027C0.468,-0.013 0.474,0.005 0.474,0.027C0.474,0.048 0.468,0.068 0.458,0.087C0.448,0.106 0.433,0.122 0.413,0.137C0.394,0.152 0.37,0.163 0.343,0.172C0.315,0.181 0.284,0.186 0.25,0.186C0.215,0.186 0.184,0.182 0.158,0.175C0.131,0.168 0.109,0.158 0.091,0.146C0.073,0.134 0.06,0.12 0.051,0.104C0.042,0.088 0.038,0.07 0.038,0.053C0.038,0.026 0.046,0.004 0.064,-0.016C0.081,-0.034 0.105,-0.049 0.135,-0.06C0.118,-0.065 0.105,-0.073 0.095,-0.084C0.085,-0.095 0.081,-0.11 0.081,-0.129C0.081,-0.136 0.082,-0.143 0.085,-0.151C0.087,-0.158 0.091,-0.166 0.097,-0.173C0.102,-0.181 0.108,-0.188 0.116,-0.195C0.123,-0.201 0.132,-0.207 0.142,-0.213C0.118,-0.226 0.1,-0.244 0.087,-0.267C0.074,-0.29 0.067,-0.316 0.067,-0.347C0.067,-0.371 0.071,-0.392 0.08,-0.412C0.088,-0.431 0.1,-0.448 0.116,-0.462C0.131,-0.476 0.15,-0.487 0.172,-0.495C0.194,-0.502 0.218,-0.506 0.245,-0.506ZM0.43,0.034C0.43,0.018 0.425,0.005 0.417,-0.004C0.409,-0.014 0.398,-0.021 0.385,-0.027C0.371,-0.032 0.355,-0.036 0.337,-0.038C0.319,-0.04 0.301,-0.042 0.281,-0.043C0.262,-0.044 0.242,-0.045 0.223,-0.046C0.203,-0.047 0.185,-0.049 0.168,-0.052C0.155,-0.047 0.143,-0.041 0.132,-0.034C0.121,-0.028 0.112,-0.02 0.105,-0.012C0.097,-0.004 0.091,0.005 0.087,0.015C0.082,0.025 0.08,0.035 0.08,0.047C0.08,0.062 0.084,0.075 0.091,0.088C0.099,0.1 0.11,0.111 0.124,0.12C0.139,0.129 0.157,0.137 0.178,0.142C0.198,0.147 0.223,0.15 0.25,0.15C0.275,0.15 0.299,0.147 0.321,0.142C0.343,0.136 0.362,0.128 0.378,0.118C0.394,0.107 0.407,0.095 0.416,0.081C0.425,0.066 0.43,0.051 0.43,0.034ZM0.245,-0.22C0.266,-0.22 0.285,-0.223 0.302,-0.229C0.319,-0.235 0.333,-0.244 0.344,-0.255C0.355,-0.266 0.364,-0.279 0.37,-0.295C0.376,-0.31 0.379,-0.327 0.379,-0.346C0.379,-0.364 0.376,-0.381 0.37,-0.397C0.364,-0.412 0.355,-0.426 0.343,-0.437C0.332,-0.448 0.318,-0.456 0.301,-0.462C0.285,-0.468 0.266,-0.471 0.245,-0.471C0.224,-0.471 0.205,-0.468 0.189,-0.462C0.172,-0.456 0.158,-0.448 0.146,-0.437C0.135,-0.426 0.126,-0.412 0.12,-0.397C0.114,-0.381 0.111,-0.364 0.111,-0.346C0.111,-0.327 0.114,-0.31 0.12,-0.295C0.126,-0.279 0.135,-0.266 0.146,-0.255C0.158,-0.244 0.172,-0.235 0.189,-0.229C0.205,-0.223 0.224,-0.22 0.245,-0.22Z" style="fill:rgb(251,251,251);fill-rule:nonzero;"/>
        </g>
        <g transform="matrix(50,0,0,50,1449.96,1653.44)">
            <path d="M0.081,0L0.081,-0.498L0.107,-0.498C0.116,-0.498 0.121,-0.493 0.122,-0.485L0.127,-0.41C0.149,-0.439 0.176,-0.462 0.206,-0.479C0.236,-0.497 0.27,-0.506 0.307,-0.506C0.334,-0.506 0.358,-0.501 0.379,-0.493C0.4,-0.484 0.417,-0.471 0.431,-0.455C0.444,-0.439 0.455,-0.419 0.462,-0.396C0.468,-0.373 0.472,-0.347 0.472,-0.318L0.472,0L0.425,0L0.425,-0.318C0.424,-0.365 0.414,-0.401 0.393,-0.428C0.371,-0.454 0.338,-0.468 0.295,-0.468C0.262,-0.468 0.232,-0.459 0.204,-0.442C0.175,-0.425 0.151,-0.402 0.129,-0.373L0.129,0L0.081,0Z" style="fill:rgb(251,251,251);fill-rule:nonzero;"/>
        </g>
    </g>
    <g transform="matrix(2233.15,0,0,2233.15,-156.32,973.653)">
        <path d="M0.309,-0.025L0.276,-0.025L0.07,-0.23L0.276,-0.436L0.309,-0.436L0.103,-0.23L0.309,-0.025Z" style="fill:rgb(75,242,181);fill-rule:nonzero;"/>
    </g>
    <g transform="matrix(2233.15,0,0,2233.15,-118.146,973.653)">
        <path d="M0.307,-0.23L0.102,-0.025L0.068,-0.025L0.274,-0.23L0.068,-0.436L0.102,-0.436L0.307,-0.23Z" style="fill:rgb(251,251,251);fill-rule:nonzero;"/>
    </g>
</svg>
